<svg width="26" height="50" viewBox="0 0 26 50" fill="none" xmlns="http://www.w3.org/2000/svg">
<path d="M17.1074 49.6582C16.8633 49.6679 16.707 49.6875 16.5508 49.6875C13.2109 49.6875 9.88086 49.6777 6.54102 49.6972C6.07227 49.6972 5.94531 49.5703 5.94531 49.1015C5.95508 41.3281 5.95508 33.5449 5.95508 25.7714C5.95508 25.5664 5.95508 25.3613 5.95508 25.0976C4.13867 25.0976 2.37109 25.0976 0.574219 25.0976C0.574219 22.3242 0.574219 19.5996 0.574219 16.7968C0.759766 16.7968 0.935546 16.7968 1.10156 16.7968C2.56641 16.7968 4.03125 16.7871 5.49609 16.8066C5.86719 16.8066 5.96484 16.6992 5.96484 16.3379C5.94531 14.1601 5.94531 11.9726 5.96484 9.79489C5.97461 8.27145 6.21875 6.78707 6.92188 5.41012C7.92773 3.46676 9.51953 2.20699 11.5313 1.42574C13.1719 0.781213 14.9004 0.546838 16.6387 0.517542C19.4707 0.478479 22.3027 0.49801 25.1348 0.488245C25.3984 0.488245 25.6133 0.478479 25.6133 0.849573C25.6035 3.53512 25.6035 6.22067 25.6035 8.90621C25.6035 8.93551 25.5938 8.96481 25.5547 9.09176C25.3887 9.09176 25.2031 9.09176 25.0176 9.09176C23.2598 9.09176 21.502 9.082 19.7441 9.09176C18.7285 9.09176 17.9082 9.50192 17.3906 10.3906C17.2344 10.6543 17.1367 10.9961 17.1367 11.3086C17.1074 12.9687 17.1367 14.6289 17.1172 16.289C17.1172 16.6797 17.2344 16.7871 17.6152 16.7871C20.0566 16.7675 22.498 16.7773 24.9395 16.7773C25.1348 16.7773 25.3203 16.7773 25.6523 16.7773C25.3105 19.5703 24.9785 22.3047 24.6367 25.0683C22.0977 25.0683 19.627 25.0683 17.1074 25.0683C17.1074 33.2812 17.1074 41.4453 17.1074 49.6582Z" fill="#343F46"/>
</svg>
