<svg width="50" height="50" viewBox="0 0 50 50" fill="none" xmlns="http://www.w3.org/2000/svg">
<path d="M41.3281 11.6406C41.3281 13.2812 40 14.6484 38.3203 14.6484C36.6406 14.6484 35.3125 13.3203 35.3125 11.6406C35.3125 9.96094 36.6406 8.63281 38.3203 8.63281C40 8.67188 41.3281 10 41.3281 11.6406ZM25 33.3203C20.3906 33.3203 16.6797 29.5703 16.6797 25C16.6797 20.4297 20.3906 16.6797 25 16.6797C29.6094 16.6797 33.3203 20.3906 33.3203 25C33.3203 29.6094 29.6094 33.3203 25 33.3203ZM25 12.1484C17.8906 12.1484 12.1484 17.8906 12.1484 25C12.1484 32.1094 17.8906 37.8516 25 37.8516C32.1094 37.8516 37.8516 32.1094 37.8516 25C37.8516 17.8906 32.1094 12.1484 25 12.1484ZM25 4.49219C31.6797 4.49219 32.4609 4.53125 35.1172 4.64844C37.5391 4.76562 38.8672 5.15625 39.7656 5.50781C40.9375 5.97656 41.7578 6.48438 42.6562 7.38281C43.5156 8.24219 44.0625 9.10156 44.5312 10.2734C44.8828 11.1719 45.2734 12.4609 45.3906 14.9219C45.5078 17.5391 45.5469 18.3594 45.5469 25.0391C45.5469 31.7188 45.5078 32.5 45.3906 35.1562C45.2734 37.5781 44.8828 38.9062 44.5312 39.8047C44.0625 40.9766 43.5547 41.7969 42.6562 42.6953C41.7969 43.5547 40.9375 44.1016 39.7656 44.5703C38.8672 44.9219 37.5781 45.3125 35.1172 45.4297C32.5 45.5469 31.6797 45.5859 25 45.5859C18.3203 45.5859 17.5391 45.5469 14.8828 45.4297C12.4609 45.3125 11.1328 44.9219 10.2344 44.5703C9.0625 44.1016 8.24219 43.5938 7.34375 42.6953C6.48437 41.8359 5.9375 40.9766 5.46875 39.8047C5.11719 38.9062 4.72656 37.6172 4.60938 35.1562C4.49219 32.5391 4.45312 31.7188 4.45312 25.0391C4.45312 18.3594 4.49219 17.5781 4.60938 14.9219C4.72656 12.5 5.11719 11.1719 5.46875 10.2734C5.9375 9.10156 6.44531 8.28125 7.34375 7.38281C8.20312 6.52344 9.0625 5.97656 10.2344 5.50781C11.1328 5.15625 12.4219 4.76562 14.8828 4.64844C17.5391 4.53125 18.3203 4.49219 25 4.49219ZM25 0C18.2031 0 17.3438 0.0390625 14.6875 0.15625C12.0312 0.273438 10.1953 0.703125 8.63281 1.32812C6.99219 1.95312 5.58594 2.8125 4.21875 4.21875C2.85156 5.625 1.95312 6.99219 1.32812 8.63281C0.703125 10.2344 0.273438 12.0312 0.15625 14.6875C0.0390625 17.3438 0 18.2031 0 25C0 31.7969 0.0390625 32.6562 0.15625 35.3125C0.273438 37.9688 0.703125 39.8047 1.32812 41.3672C1.95312 43.0078 2.8125 44.4141 4.21875 45.7812C5.625 47.1484 6.99219 48.0078 8.63281 48.6719C10.2344 49.2969 12.0312 49.7266 14.6875 49.8438C17.3438 49.9609 18.2031 50 25 50C31.7969 50 32.6562 49.9609 35.3125 49.8438C37.9688 49.7266 39.8047 49.2969 41.3672 48.6719C43.0078 48.0469 44.4141 47.1875 45.7812 45.7812C47.1875 44.375 48.0078 43.0078 48.6719 41.3672C49.2969 39.7656 49.7266 37.9688 49.8438 35.3125C49.9609 32.6562 50 31.7969 50 25C50 18.2031 49.9609 17.3438 49.8438 14.6875C49.7266 12.0312 49.2969 10.1953 48.6719 8.63281C48.0469 6.99219 47.1875 5.58594 45.7812 4.21875C44.375 2.8125 43.0078 1.99219 41.3672 1.32812C39.7656 0.703125 37.9688 0.273438 35.3125 0.15625C32.6562 0.0390625 31.7969 0 25 0Z" fill="#343F46"/>
</svg>
