<svg width="64" height="45" viewBox="0 0 64 45" fill="none" xmlns="http://www.w3.org/2000/svg">
<path d="M63.4465 9.66667C63.4465 9.66667 62.7786 5.33333 60.942 3.33333C58.4375 0.833333 55.7661 0.833333 54.5974 0.666666C45.4143 -6.45717e-07 32.0572 0 32.0572 0C32.0572 0 18.7 -6.45717e-07 9.68394 0.666666C8.34822 0.833333 5.67679 0.833333 3.17232 3.33333C1.16875 5.33333 0.667857 9.66667 0.667857 9.66667C0.667857 9.66667 0 14.8333 0 20V24.8333C0 30 0.667857 35.1667 0.667857 35.1667C0.667857 35.1667 1.33571 39.5 3.17232 41.5C5.67679 44 8.84911 44 10.1848 44.1667C15.3607 44.6667 31.8902 44.8333 31.8902 44.8333C31.8902 44.8333 45.4143 44.8333 54.2634 44.1667C55.4322 44 58.2706 44 60.6081 41.5C62.7786 39.6667 63.4465 35.1667 63.4465 35.1667C63.4465 35.1667 64.1143 30 64.1143 24.8333V20C63.9474 14.8333 63.4465 9.66667 63.4465 9.66667ZM25.3786 30.8333V12.8333L42.7429 21.8333L25.3786 30.8333Z" fill="#343F46"/>
</svg>
