<svg width="97" height="60" viewBox="0 0 97 60" fill="none" xmlns="http://www.w3.org/2000/svg">
<g clip-path="url(#clip0)">
<path d="M28.3314 31.3857C28.1854 31.9551 28.0673 32.5314 27.9701 33.1119L27.9352 33.3297C27.922 33.4022 27.9147 33.4753 27.9039 33.5482L27.8732 33.767C27.8628 33.8398 27.852 33.9126 27.8446 33.9861L27.7924 34.4259L27.7534 34.867C27.7272 35.2207 27.5094 35.529 27.1836 35.7569C27.008 35.876 26.8148 35.9669 26.6111 36.0266C26.3875 36.0932 26.1549 36.1247 25.9216 36.12L13.649 35.8862C13.4086 35.8815 13.1731 35.8181 12.9629 35.7015C12.7477 35.5803 12.5614 35.4139 12.4169 35.2137C12.1088 34.8015 11.943 34.2266 11.9907 33.6057L12.0604 32.8321L12.1482 32.06C12.1621 31.931 12.1799 31.8028 12.198 31.6746L12.2506 31.2899C12.2695 31.1617 12.2855 31.0331 12.3071 30.9066L12.3702 30.5234C12.5409 29.5003 12.7514 28.4829 13.0092 27.4769C13.0839 27.1881 13.2063 26.9137 13.3713 26.6651C13.5226 26.4399 13.7139 26.2443 13.9357 26.0881C14.0386 26.0161 14.1486 25.9548 14.264 25.9051C14.3759 25.8575 14.4928 25.8224 14.6124 25.8006C14.849 25.7579 15.0924 25.7742 15.3212 25.848L27.0045 29.6143C27.2269 29.6863 27.4369 29.7921 27.6272 29.9279C27.7152 29.9905 27.7983 30.0598 27.8757 30.1352C27.9501 30.2067 28.0186 30.284 28.0805 30.3666C28.195 30.5163 28.2791 30.687 28.3279 30.869C28.3745 31.0379 28.3758 31.2162 28.3314 31.3857Z" fill="#343F46"/>
<path d="M30.8932 25.4487L30.7761 25.6362C30.7374 25.6989 30.6966 25.7602 30.6604 25.8243L30.4357 26.2048L30.2203 26.5905C30.1506 26.7195 30.083 26.8508 30.0133 26.9804C29.7427 27.5033 29.4947 28.0363 29.2694 28.5794C29.1328 28.9045 28.838 29.1314 28.453 29.2443C28.0742 29.3578 27.6049 29.3578 27.1425 29.1993L15.5347 25.2037C15.0727 25.0452 14.7333 24.6713 14.5688 24.1811C14.4086 23.6933 14.4225 23.0915 14.6633 22.5152C15.0619 21.5567 15.5001 20.6159 15.978 19.6928C16.0982 19.4653 16.2184 19.2339 16.3421 19.0074L16.7226 18.328L17.1177 17.6583C17.1829 17.5461 17.2526 17.437 17.3209 17.3269L17.5268 16.9973C17.5681 16.9313 17.6116 16.8678 17.6571 16.8067C17.7026 16.7456 17.7511 16.6875 17.8024 16.6325C17.9002 16.5251 18.0068 16.4261 18.1209 16.3363C18.3331 16.1679 18.5752 16.041 18.8345 15.9624C19.3255 15.8126 19.8293 15.877 20.2252 16.1631L30.1775 23.35C30.5422 23.6092 30.8186 23.9741 30.9695 24.3954C31.031 24.5739 31.0582 24.7625 31.0496 24.9511C31.0449 25.0391 31.0291 25.126 31.0026 25.21C30.9894 25.2514 30.9733 25.2918 30.9545 25.3309C30.9369 25.3716 30.9164 25.4109 30.8932 25.4487Z" fill="#343F46"/>
<path d="M35.17 20.5663L35.001 20.7092C34.9449 20.7569 34.8874 20.8033 34.8331 20.8535L34.5017 21.1475L34.1776 21.4496C34.0707 21.5514 33.9665 21.6563 33.8602 21.7587C33.4421 22.175 33.0405 22.6079 32.6556 23.0573C32.5398 23.1903 32.3928 23.2923 32.2277 23.3542C32.142 23.3869 32.053 23.4103 31.9622 23.4239C31.8663 23.438 31.7693 23.4441 31.6723 23.4424C31.2758 23.4344 30.8284 23.2894 30.4374 22.9964L20.6248 15.6206C20.2339 15.3275 20.0276 14.8683 20.0206 14.3523C20.0188 14.2205 20.0305 14.0889 20.0555 13.9596C20.0811 13.8237 20.1184 13.6904 20.167 13.561C20.2721 13.2823 20.4254 13.0244 20.62 12.7989C21.292 12.0112 21.9959 11.2524 22.7315 10.5226C22.9169 10.3421 23.1009 10.1598 23.2891 9.98142L23.8574 9.45249L24.4375 8.93645C24.5337 8.85004 24.6334 8.76711 24.732 8.68314L25.0285 8.43261C25.088 8.38243 25.1486 8.33528 25.2104 8.29114C25.2722 8.24701 25.3358 8.20705 25.4013 8.17128C25.5272 8.09911 25.6587 8.03745 25.7947 7.98695C26.0477 7.89195 26.3162 7.84537 26.5864 7.84967C27.0993 7.85733 27.56 8.07267 27.8488 8.46606L35.1292 18.3485C35.3975 18.7073 35.5491 19.1398 35.5634 19.5876C35.5679 19.7758 35.5368 19.9632 35.4718 20.1399C35.4404 20.2221 35.3987 20.3001 35.3477 20.3719C35.2958 20.4423 35.2365 20.5069 35.1707 20.5646L35.17 20.5663Z" fill="#343F46"/>
<path d="M40.7246 17.2335C39.6321 17.6738 38.5795 18.2073 37.5785 18.828C37.4277 18.9189 37.2567 18.9709 37.0809 18.9792C36.9893 18.9841 36.8975 18.9791 36.807 18.9642C36.7114 18.9487 36.6173 18.9254 36.5255 18.8945C36.1505 18.7656 35.769 18.491 35.4864 18.0931L28.3983 8.06953C28.1157 7.67092 28.0596 7.17091 28.2109 6.67577C28.2493 6.55021 28.3004 6.4289 28.3635 6.31374C28.4294 6.19216 28.5058 6.07652 28.5917 5.96809C28.7772 5.73474 29.0024 5.53588 29.2569 5.38062C31.022 4.28725 32.8775 3.34709 34.8031 2.57045C35.0792 2.45692 35.3731 2.39287 35.6714 2.38125C35.8097 2.37473 35.9483 2.38115 36.0854 2.40041C36.2157 2.41961 36.344 2.45075 36.4687 2.49344C36.7034 2.5717 36.9186 2.69944 37.0997 2.86802C37.2748 3.03339 37.4064 3.23935 37.483 3.46768L41.365 15.1122C41.439 15.3336 41.4785 15.5649 41.4821 15.7983C41.487 16.0105 41.4586 16.2221 41.3978 16.4255C41.3697 16.5178 41.3331 16.6072 41.2884 16.6927C41.2465 16.7742 41.1966 16.8514 41.1396 16.9231C41.0292 17.0594 40.8866 17.1661 40.7246 17.2335Z" fill="#343F46"/>
<path d="M47.0277 15.7805C46.4381 15.823 45.8521 15.889 45.2697 15.9784L44.8342 16.0502L44.4007 16.1328C44.3283 16.1453 44.2565 16.1617 44.1847 16.1777L43.9694 16.2248C43.8251 16.2537 43.6829 16.2906 43.5401 16.3255C43.4551 16.3458 43.3678 16.3546 43.2805 16.3516C43.193 16.351 43.1061 16.3393 43.0216 16.3168C42.9331 16.2926 42.8475 16.2589 42.7662 16.2164C42.6806 16.1724 42.599 16.1211 42.5223 16.0631C42.2059 15.8237 41.9275 15.4432 41.7818 14.9781L38.1273 3.25897C37.981 2.79171 38.0827 2.29971 38.3799 1.8774C38.4558 1.76917 38.5422 1.66868 38.6378 1.5774C38.7384 1.48235 38.8471 1.3962 38.9625 1.3199C39.0843 1.2398 39.2125 1.16987 39.3458 1.11084C39.4859 1.05081 39.6308 1.00267 39.779 0.966929C40.0312 0.905255 40.2832 0.842885 40.5372 0.789573L40.9177 0.706993C41.0445 0.679466 41.1713 0.65194 41.2989 0.628246L42.0634 0.482598L42.8299 0.355069C43.8548 0.196412 44.884 0.0802655 45.9175 0.00662854C46.0691 -0.0033649 46.2213 -0.00103431 46.3726 0.0135973C46.7877 0.0518767 47.1849 0.201244 47.5224 0.446011C47.9329 0.757168 48.1793 1.19899 48.1845 1.68681L48.3012 13.961C48.3054 14.4488 48.1556 14.893 47.9256 15.2178C47.8194 15.3749 47.6828 15.5091 47.5238 15.6126C47.4492 15.6595 47.3697 15.6986 47.2869 15.7289C47.2033 15.7582 47.1161 15.7756 47.0277 15.7805Z" fill="#343F46"/>
<path d="M53.4983 16.3258C53.3554 16.291 53.2133 16.2544 53.069 16.2251L52.8537 16.1781C52.7819 16.162 52.7101 16.146 52.6376 16.1331L52.2042 16.0502L51.7686 15.9784C51.1865 15.889 50.6005 15.823 50.0107 15.7805C49.9231 15.7751 49.8366 15.7575 49.7539 15.7282C49.6711 15.6978 49.5916 15.6588 49.517 15.6119C49.358 15.5084 49.2214 15.3742 49.1152 15.2171C48.8852 14.8923 48.7357 14.4505 48.7396 13.9602L48.8563 1.68609C48.8605 1.19828 49.1068 0.756454 49.5183 0.445297C49.8547 0.201351 50.2504 0.05214 50.664 0.0132311C50.8153 -0.00140052 50.9675 -0.00373111 51.1191 0.00626233C52.1514 0.0798993 53.1806 0.196046 54.2067 0.354702L54.9733 0.482232L55.7405 0.627183C55.8681 0.650877 55.9949 0.678403 56.1217 0.70593L56.5022 0.78851C56.7562 0.841822 57.0082 0.904193 57.2604 0.965866C57.4086 1.00161 57.5535 1.04975 57.6936 1.10977C57.8269 1.16881 57.9551 1.23874 58.0769 1.31884C58.1923 1.39514 58.301 1.48129 58.4016 1.57633C58.4972 1.66762 58.5836 1.76811 58.6595 1.87634C58.957 2.29865 59.0584 2.79065 58.9121 3.25791L55.2572 14.9773C55.1116 15.4425 54.8332 15.823 54.5168 16.0624C54.44 16.1204 54.3584 16.1717 54.2729 16.2157C54.1916 16.2582 54.106 16.2919 54.0175 16.316C53.933 16.3386 53.846 16.3503 53.7586 16.3509C53.6711 16.3543 53.5835 16.3459 53.4983 16.3258Z" fill="#343F46"/>
<path d="M59.4595 18.828C58.4585 18.2073 57.4059 17.6738 56.3134 17.2335C56.1514 17.166 56.0087 17.0592 55.8984 16.9227C55.8413 16.851 55.7915 16.7739 55.7496 16.6924C55.705 16.6069 55.6685 16.5174 55.6405 16.4251C55.5798 16.2218 55.5513 16.0101 55.5562 15.7979C55.5599 15.5646 55.5993 15.3332 55.6733 15.1119L59.5553 3.46768C59.6319 3.23935 59.7635 3.03339 59.9386 2.86802C60.1197 2.69944 60.3349 2.5717 60.5697 2.49344C60.6943 2.45075 60.8226 2.41961 60.9529 2.40041C61.09 2.38115 61.2286 2.37473 61.3669 2.38125C61.6652 2.39287 61.9591 2.45692 62.2352 2.57045C64.1606 3.34712 66.0159 4.28728 67.7808 5.38062C68.0352 5.53588 68.2604 5.73474 68.4459 5.96809C68.5318 6.07652 68.6082 6.19217 68.6742 6.31374C68.7375 6.42921 68.7889 6.55087 68.8275 6.67682C68.9787 7.17056 68.9226 7.67092 68.64 8.07058L61.5519 18.091C61.2693 18.4896 60.8878 18.7642 60.5125 18.8924C60.4207 18.9233 60.3266 18.9466 60.231 18.9621C60.1405 18.977 60.0486 18.982 59.9571 18.9771C59.7814 18.9694 59.6104 18.9182 59.4595 18.828Z" fill="#343F46"/>
<path d="M64.383 23.057C63.9998 22.6077 63.5982 22.1749 63.1785 21.7584C63.0722 21.6559 62.9694 21.551 62.861 21.4493L62.537 21.1472L62.2056 20.8531C62.1513 20.8029 62.0938 20.7566 62.0377 20.7089L61.8687 20.566C61.8029 20.5083 61.7436 20.4437 61.6916 20.3733C61.6407 20.3015 61.599 20.2235 61.5676 20.1413C61.5016 19.9643 61.4696 19.7764 61.4735 19.5876C61.4877 19.1399 61.6392 18.7073 61.9073 18.3485L69.1874 8.46711C69.4766 8.07372 69.9369 7.85838 70.4499 7.85072C70.7206 7.84632 70.9898 7.89301 71.2433 7.98835C71.3792 8.03886 71.5108 8.10051 71.6367 8.17268C71.7012 8.20961 71.7649 8.24957 71.8276 8.29254C71.8903 8.33551 71.9511 8.38267 72.0098 8.43401L72.3064 8.68454C72.405 8.76851 72.5046 8.85109 72.6008 8.93785L73.181 9.45389L73.7493 9.98282C73.9371 10.1609 74.1207 10.3431 74.3068 10.524C75.0418 11.2529 75.7457 12.0117 76.4184 12.8003C76.6129 13.0258 76.7663 13.2837 76.8714 13.5624C76.92 13.6918 76.9573 13.8251 76.9829 13.961C77.0079 14.0903 77.0196 14.2219 77.0177 14.3537C77.0108 14.87 76.8045 15.3293 76.4135 15.622L66.6013 22.9971C66.2103 23.2901 65.7629 23.4347 65.3664 23.4431C65.2694 23.4448 65.1724 23.4387 65.0765 23.4246C64.9857 23.411 64.8967 23.3876 64.8109 23.3549C64.6458 23.2927 64.4987 23.1903 64.383 23.057Z" fill="#343F46"/>
<path d="M67.7703 28.5794C67.5443 28.0368 67.2958 27.5038 67.025 26.9804C66.9553 26.8508 66.8891 26.7194 66.818 26.5905L66.6027 26.2048L66.379 25.8243C66.3441 25.7602 66.302 25.6985 66.2633 25.6361L66.1462 25.4487C66.1013 25.3737 66.0647 25.2942 66.0368 25.2114C66.0103 25.1274 65.9944 25.0404 65.9898 24.9525C65.9812 24.7638 66.0084 24.5753 66.0699 24.3967C66.2207 23.9755 66.4972 23.6106 66.8619 23.3514L76.8146 16.1669C77.21 15.8805 77.7142 15.8164 78.2052 15.9662C78.4645 16.0448 78.7066 16.1717 78.9188 16.3401C79.0329 16.4299 79.1395 16.5289 79.2373 16.6363C79.2875 16.6911 79.3359 16.7492 79.3826 16.8105C79.4293 16.8718 79.4727 16.9353 79.5129 17.0011L79.7188 17.3307C79.7885 17.4408 79.8582 17.5502 79.922 17.6621L80.3168 18.3279L80.6966 19.0067C80.8213 19.2339 80.9405 19.4646 81.0617 19.6935C81.5391 20.6145 81.9774 21.5553 82.3764 22.5159C82.6176 23.0922 82.6311 23.695 82.4709 24.1817C82.305 24.672 81.967 25.0459 81.505 25.2044L69.8983 29.1993C69.4362 29.3578 68.9665 29.3582 68.5878 29.2442C68.2013 29.1313 67.9069 28.9049 67.7703 28.5794Z" fill="#343F46"/>
<path d="M69.2847 34.867L69.2456 34.4259L69.1951 33.9865C69.1878 33.913 69.1773 33.8401 69.1665 33.7673L69.1359 33.5485C69.1251 33.4757 69.1174 33.4021 69.1045 33.33L69.0697 33.1122C68.9725 32.5317 68.8543 31.9551 68.7083 31.3861C68.6641 31.2158 68.6658 31.037 68.7132 30.8676C68.7621 30.6856 68.8461 30.5149 68.9606 30.3651C69.0226 30.2826 69.0911 30.2052 69.1655 30.1338C69.2429 30.0584 69.3259 29.9891 69.4139 29.9265C69.6042 29.7907 69.8142 29.6849 70.0366 29.6129L81.719 25.8448C81.9477 25.7711 82.1911 25.7548 82.4277 25.7974C82.5474 25.8193 82.6642 25.8543 82.7761 25.902C82.8915 25.9516 83.0015 26.0129 83.1044 26.0849C83.3262 26.2412 83.5175 26.4367 83.6689 26.6619C83.8338 26.9105 83.9562 27.1849 84.0309 27.4738C84.2884 28.4797 84.4992 29.4972 84.6699 30.5202L84.733 30.9035C84.7546 31.0314 84.7706 31.1599 84.7895 31.2868L84.8431 31.6718C84.8612 31.8 84.878 31.9286 84.893 32.0572L84.9808 32.8293L85.0505 33.6028C85.0982 34.2238 84.9323 34.7987 84.6243 35.2109C84.4797 35.4111 84.2934 35.5775 84.0783 35.6987C83.8681 35.8153 83.6325 35.8787 83.3922 35.8834L71.1178 36.12C70.8845 36.1247 70.6519 36.0931 70.4283 36.0266C70.2246 35.9669 70.0315 35.8759 69.8558 35.7569C69.5282 35.5287 69.3108 35.2203 69.2847 34.867Z" fill="#343F46"/>
<path d="M0.0383301 44.0035H13.3838V60.0014H9.8645V47.1788H3.55763V60.0014H0.0383301V44.0035Z" fill="#461602"/>
<path d="M17.223 44.0035H29.289V47.1342H20.7193V50.3792H28.2607V53.51H20.7193V56.8693H29.4033V60.0014H17.223V44.0035Z" fill="#461602"/>
<path d="M41.8135 54.0358C40.7396 54.5612 39.2082 55.224 37.5858 55.224C34.4094 55.224 32.2156 53.5556 32.2156 49.8538V44.0035H35.7349V48.8252C35.7349 50.8134 36.5119 51.9329 38.3172 51.9329C39.734 51.9329 41.0825 51.4758 41.8135 50.9047V44.0035H45.3328V60.0014H41.8135V54.0358Z" fill="#461602"/>
<path d="M49.1702 44.0035H52.6895V50.9963L59.1797 44.0035H63.4308L56.918 50.7904L63.7273 60.0014H59.4996L54.5405 53.1915L52.6895 55.1111V60.0014H49.1702V44.0035Z" fill="#461602"/>
<path d="M79.6324 60.0014H76.1588V49.5134L69.1665 60.0014H65.8528V44.0035H69.3264V54.4915L76.365 44.0035H79.6331L79.6324 60.0014Z" fill="#461602"/>
<path d="M83.4712 44.0035H86.9905V50.3336H93.4806V44.0035H97V60.0014H93.4806V53.5786H86.9905V60.0014H83.4712V44.0035Z" fill="#461602"/>
<path d="M96.5819 37.6877H0.418135C0.187205 37.6877 0 37.8749 0 38.1058V40.4051C0 40.6361 0.187205 40.8233 0.418135 40.8233H96.5819C96.8128 40.8233 97 40.6361 97 40.4051V38.1058C97 37.8749 96.8128 37.6877 96.5819 37.6877Z" fill="#461602"/>
</g>
<defs>
<clipPath id="clip0">
<rect width="97" height="60" fill="white"/>
</clipPath>
</defs>
</svg>
